# Blender v2.79 (sub 0) OBJ File: 'pertemuan 4.blend'
# www.blender.org
mtllib pertemuan 41.mtl
o Cube
v 1.535483 2.164563 -1.113221
v 1.535483 0.164563 -1.113221
v 1.535483 2.164563 0.886779
v 1.535483 0.164563 0.886779
v -0.464518 2.164563 -1.113221
v -0.464518 0.164563 -1.113221
v -0.464518 2.164563 0.886779
v -0.464518 0.164563 0.886779
vt 0.375022 0.499291
vt 0.375022 0.249334
vt 0.624978 0.249335
vt 0.624978 0.499291
vt 0.375022 0.749248
vt 0.125065 0.749248
vt 0.125065 0.499291
vt 0.375022 -0.000622
vt 0.624978 -0.000622
vt 0.375022 0.999205
vt 0.624978 0.749248
vt 0.624978 0.999205
vt 0.874935 0.499291
vt 0.874935 0.749248
vn 0.0000 -1.0000 0.0000
vn 0.0000 0.0000 -1.0000
vn 1.0000 0.0000 0.0000
vn 0.0000 1.0000 0.0000
vn 0.0000 0.0000 1.0000
vn -1.0000 0.0000 0.0000
usemtl Material
s off
f 6/1/1 2/2/1 4/3/1 8/4/1
f 6/1/2 5/5/2 1/6/2 2/7/2
f 2/2/3 1/8/3 3/9/3 4/3/3
f 1/10/4 5/5/4 7/11/4 3/12/4
f 4/13/5 3/14/5 7/11/5 8/4/5
f 8/4/6 7/11/6 5/5/6 6/1/6
